<?xml version="1.0" encoding="utf-8"?>
<!-- Generator: Adobe Illustrator 26.5.0, SVG Export Plug-In . SVG Version: 6.00 Build 0)  -->
<svg version="1.1" id="_x31_0" xmlns="http://www.w3.org/2000/svg" xmlns:xlink="http://www.w3.org/1999/xlink" x="0px" y="0px"
	 viewBox="0 0 512 512" style="enable-background:new 0 0 512 512;" xml:space="preserve">
<style type="text/css">
	.st0{fill:#444444;}
</style>
<g>
	<path class="st0" d="M316.5,111.2h-121c-45.2,0-81.8,36.6-81.8,81.8v126c0,45.2,36.6,81.8,81.8,81.8h121.1
		c45.2,0,81.8-36.6,81.8-81.8V193C398.4,147.9,361.7,111.2,316.5,111.2z M142.7,193c0-29.1,23.7-52.8,52.8-52.8h121.1
		c29.1,0,52.8,23.7,52.8,52.8v126c0,29.1-23.7,52.8-52.8,52.8H195.5c-29.1,0-52.8-23.7-52.8-52.8V193z"/>
	<path class="st0" d="M256,330.6c41.1,0,74.6-33.5,74.6-74.6s-33.5-74.6-74.6-74.6s-74.6,33.5-74.6,74.6S214.9,330.6,256,330.6z
		 M256,204.7c28.3,0,51.3,23,51.3,51.3s-23,51.3-51.3,51.3s-51.3-23-51.3-51.3S227.7,204.7,256,204.7z"/>
	<ellipse class="st0" cx="332.8" cy="179.2" rx="16.7" ry="16.7"/>
</g>
<g>
	<path class="st0" d="M256.1,16c32.4,0,63.8,6.3,93.4,18.8c28.6,12.1,54.2,29.4,76.3,51.4c22,22,39.3,47.7,51.4,76.3
		c12.5,29.6,18.8,61,18.8,93.4s-6.3,63.8-18.8,93.4c-12.1,28.6-29.4,54.2-51.4,76.3c-22,22-47.7,39.3-76.3,51.4
		c-29.6,12.5-61,18.8-93.4,18.8s-63.8-6.3-93.4-18.8c-28.6-12.1-54.2-29.4-76.3-51.4c-22-22-39.3-47.7-51.4-76.3
		c-12.5-29.6-18.8-61-18.8-93.4s6.3-63.8,18.8-93.4c12-28.5,29.3-54.2,51.4-76.2c22-22,47.7-39.3,76.3-51.4
		C192.2,22.3,223.7,16,256.1,16 M256.1,0C114.7,0,0.1,114.6,0.1,255.9S114.7,511.8,256,511.8s256-114.5,256-255.9S397.4,0,256.1,0
		L256.1,0z"/>
</g>
</svg>
