<?xml version="1.0" encoding="utf-8"?>
<!-- Generator: Adobe Illustrator 26.5.0, SVG Export Plug-In . SVG Version: 6.00 Build 0)  -->
<svg version="1.1" id="レイヤー_1" xmlns="http://www.w3.org/2000/svg" xmlns:xlink="http://www.w3.org/1999/xlink" x="0px"
	 y="0px" viewBox="0 0 700 700" style="enable-background:new 0 0 700 700;" xml:space="preserve">
<style type="text/css">
	.st0{fill:url(#SVGID_1_);}
	.st1{fill:url(#SVGID_00000023264445884995173910000003156066839551168397_);}
	.st2{fill:url(#SVGID_00000117651830431201662330000009487657768373974961_);}
	.st3{fill:url(#SVGID_00000047056589423177274520000009281937059037379516_);}
	.st4{fill:url(#SVGID_00000137108047556755995820000005365395896815497881_);}
	.st5{fill:url(#SVGID_00000178182467130271150800000017821682029442937492_);}
	.st6{fill:url(#SVGID_00000152261297316889929560000000911885035538100881_);}
	.st7{fill:url(#SVGID_00000069363935488068571480000017016562043916110721_);}
	.st8{fill:url(#SVGID_00000093876322557811679780000015029132758409623699_);}
	.st9{fill:url(#SVGID_00000109017750003200905170000007535084243831591318_);}
	.st10{fill:url(#SVGID_00000060746668908303154020000018205060118063162784_);}
	.st11{fill:url(#SVGID_00000065758483680846825180000009676142082200269982_);}
	.st12{fill:url(#SVGID_00000134947296729881160790000016938510607836893602_);}
	.st13{fill:url(#SVGID_00000124879728546978046290000014257177595843998095_);}
	.st14{fill:url(#SVGID_00000101086490556178902490000007901181014378675620_);}
	.st15{fill:url(#SVGID_00000016777209247697712190000009421682811580687278_);}
	.st16{fill:url(#SVGID_00000034809661396169004840000012271509969174640568_);}
	.st17{fill:url(#SVGID_00000067224861658585361740000001264102235602314908_);}
	.st18{fill:url(#SVGID_00000133528789440943997740000008771250165716265396_);}
	.st19{fill:url(#SVGID_00000160159094689916341540000010014173538562390429_);}
	.st20{fill:url(#SVGID_00000032606828785170967010000011679672974289195149_);}
	.st21{fill:#FFFFFF;}
	.st22{fill:url(#SVGID_00000075123638617033730190000011591295184178370719_);}
	.st23{fill:url(#SVGID_00000119819840552429480330000006397874262539216258_);}
	.st24{fill:url(#SVGID_00000089555873304723773060000018189857914281254324_);}
	.st25{fill:url(#SVGID_00000132062886864703132560000010456024510183180941_);}
</style>
<g>
	<g>
		<linearGradient id="SVGID_1_" gradientUnits="userSpaceOnUse" x1="98.267" y1="590.4228" x2="127.033" y2="590.4228">
			<stop  offset="0" style="stop-color:#0B1852"/>
			<stop  offset="0.3098" style="stop-color:#101E56"/>
			<stop  offset="0.7112" style="stop-color:#1E2E63"/>
			<stop  offset="1" style="stop-color:#2C3E70"/>
		</linearGradient>
		<path class="st0" d="M107,603.2l-7.1-7c-1.9-1.9-2.4-3.2-0.1-5.5l2.1-2.1c0.4-0.4,0.8-0.4,1.3,0l0.9,0.9c0.4,0.4,0.4,0.8,0,1.3
			l-1.8,1.8c-0.7,0.7-0.9,1.2,0,2.1l6.3,6.2c0.9,0.9,1.3,0.8,2.1,0l4.1-4.1c0.7-0.7,0.9-1.2,0-2.1l-6.7-6.7
			c-1.9-1.9-2.4-3.2-0.1-5.5l4.8-4.9c2.3-2.3,3.6-1.8,5.5,0.1l7.1,7c1.9,1.9,2.4,3.2,0.1,5.5l-2.1,2.1c-0.4,0.4-0.8,0.4-1.3,0
			l-0.9-0.9c-0.4-0.4-0.4-0.8,0-1.3l1.8-1.8c0.7-0.7,0.9-1.2,0-2.1l-6.3-6.2c-0.9-0.9-1.3-0.8-2.1,0l-4.1,4.1
			c-0.7,0.7-0.9,1.2,0,2.1l6.7,6.7c1.9,1.9,2.4,3.2,0.1,5.5l-4.8,4.8C110.2,605.5,108.9,605.1,107,603.2z"/>
		
			<linearGradient id="SVGID_00000156559373361943370160000010109125834366386855_" gradientUnits="userSpaceOnUse" x1="120.5933" y1="610.3932" x2="150.3886" y2="610.3932">
			<stop  offset="0" style="stop-color:#0B1852"/>
			<stop  offset="0.3098" style="stop-color:#101E56"/>
			<stop  offset="0.7112" style="stop-color:#1E2E63"/>
			<stop  offset="1" style="stop-color:#2C3E70"/>
		</linearGradient>
		<path style="fill:url(#SVGID_00000156559373361943370160000010109125834366386855_);" d="M131,624.4l-8.5-7.1
			c-2.1-1.7-2.7-3-0.6-5.5l13.6-16.4c0.4-0.5,0.8-0.5,1.3-0.1l1,0.8c0.5,0.4,0.5,0.8,0.1,1.3l-13.3,16c-0.7,0.8-0.8,1.2,0.2,2.1
			l7.6,6.3c1,0.9,1.4,0.6,2-0.1l13.3-16c0.4-0.5,0.8-0.5,1.3-0.1l1,0.8c0.5,0.4,0.5,0.8,0.1,1.3L136.5,624
			C134.5,626.5,133.1,626.1,131,624.4z"/>
		
			<linearGradient id="SVGID_00000058557055878370101280000008735548910615533733_" gradientUnits="userSpaceOnUse" x1="144.1532" y1="628.45" x2="172.5468" y2="628.45">
			<stop  offset="0" style="stop-color:#0B1852"/>
			<stop  offset="0.3098" style="stop-color:#101E56"/>
			<stop  offset="0.7112" style="stop-color:#1E2E63"/>
			<stop  offset="1" style="stop-color:#2C3E70"/>
		</linearGradient>
		<path style="fill:url(#SVGID_00000058557055878370101280000008735548910615533733_);" d="M158.6,643.4c-0.3,0.5-0.8,0.6-1.3,0.2
			l-12.7-8.8c-0.5-0.3-0.6-0.8-0.2-1.3l0.7-1.1c0.3-0.5,0.8-0.8,1.3-1l21.9-8.3l-10.6-7.4c-0.5-0.3-0.6-0.8-0.2-1.3l0.6-0.9
			c0.3-0.5,0.8-0.6,1.3-0.2l12.7,8.8c0.5,0.3,0.6,0.8,0.2,1.3l-0.7,1.1c-0.3,0.5-0.8,0.8-1.3,1l-21.9,8.3l10.5,7.3
			c0.5,0.3,0.6,0.8,0.2,1.3L158.6,643.4z"/>
		
			<linearGradient id="SVGID_00000013895664875643402450000006748865271458782645_" gradientUnits="userSpaceOnUse" x1="169.5631" y1="643.6907" x2="197.5688" y2="643.6907">
			<stop  offset="0" style="stop-color:#0B1852"/>
			<stop  offset="0.3098" style="stop-color:#101E56"/>
			<stop  offset="0.7112" style="stop-color:#1E2E63"/>
			<stop  offset="1" style="stop-color:#2C3E70"/>
		</linearGradient>
		<path style="fill:url(#SVGID_00000013895664875643402450000006748865271458782645_);" d="M181.5,658.1l-9.6-5.5
			c-2.3-1.3-3.1-2.5-1.5-5.3l10.6-18.5c0.3-0.5,0.7-0.6,1.2-0.3l1.1,0.6c0.5,0.3,0.6,0.7,0.3,1.2l-10.3,18.1c-0.5,0.9-0.5,1.4,0.6,2
			l8.6,4.9c1.2,0.7,1.5,0.4,2-0.5l10.3-18.1c0.3-0.5,0.7-0.6,1.2-0.3l1.1,0.6c0.5,0.3,0.6,0.7,0.3,1.2l-10.6,18.5
			C185.2,659.6,183.8,659.5,181.5,658.1z"/>
		
			<linearGradient id="SVGID_00000106139831704460014090000010626285098610906552_" gradientUnits="userSpaceOnUse" x1="197.5396" y1="658.0309" x2="222.6604" y2="658.0309">
			<stop  offset="0" style="stop-color:#0B1852"/>
			<stop  offset="0.3098" style="stop-color:#101E56"/>
			<stop  offset="0.7112" style="stop-color:#1E2E63"/>
			<stop  offset="1" style="stop-color:#2C3E70"/>
		</linearGradient>
		<path style="fill:url(#SVGID_00000106139831704460014090000010626285098610906552_);" d="M209.3,671.9l-9.1-4.2
			c-2.5-1.1-3.4-2.2-2-5.1l1.3-2.8c0.3-0.6,0.6-0.7,1.2-0.4l1.1,0.5c0.6,0.3,0.7,0.6,0.4,1.2l-1,2.3c-0.4,1-0.4,1.4,0.7,1.9l8,3.7
			c1.1,0.5,1.5,0.3,1.9-0.7l2.4-5.2c0.4-1,0.4-1.4-0.7-1.9l-8.6-3.9c-2.5-1.1-3.4-2.2-2-5.1l2.8-6.2c1.3-2.9,2.7-3,5.2-1.8l9.1,4.2
			c2.5,1.1,3.4,2.2,2,5.1l-1.3,2.8c-0.3,0.6-0.6,0.7-1.2,0.4l-1.1-0.5c-0.6-0.3-0.7-0.6-0.4-1.2l1-2.3c0.4-1,0.4-1.4-0.7-1.9l-8-3.7
			c-1.1-0.5-1.5-0.3-1.9,0.7l-2.4,5.3c-0.4,1-0.4,1.4,0.7,1.9l8.6,3.9c2.5,1.1,3.4,2.2,2,5.1l-2.8,6.2
			C213.2,673,211.8,673,209.3,671.9z"/>
		
			<linearGradient id="SVGID_00000069382753075028750750000017873010284703847597_" gradientUnits="userSpaceOnUse" x1="225.0064" y1="666.6" x2="236.6936" y2="666.6">
			<stop  offset="0" style="stop-color:#0B1852"/>
			<stop  offset="0.3098" style="stop-color:#101E56"/>
			<stop  offset="0.7112" style="stop-color:#1E2E63"/>
			<stop  offset="1" style="stop-color:#2C3E70"/>
		</linearGradient>
		<path style="fill:url(#SVGID_00000069382753075028750750000017873010284703847597_);" d="M228,678.5c-0.2,0.6-0.6,0.7-1.2,0.5
			l-1.2-0.4c-0.6-0.2-0.7-0.6-0.5-1.2l8.6-22.7c0.2-0.6,0.6-0.7,1.2-0.5l1.2,0.4c0.6,0.2,0.7,0.6,0.5,1.2L228,678.5z"/>
		
			<linearGradient id="SVGID_00000165934646555446163880000002327698972768967860_" gradientUnits="userSpaceOnUse" x1="240.325" y1="674.0009" x2="265.4886" y2="674.0009">
			<stop  offset="0" style="stop-color:#0B1852"/>
			<stop  offset="0.3098" style="stop-color:#101E56"/>
			<stop  offset="0.7112" style="stop-color:#1E2E63"/>
			<stop  offset="1" style="stop-color:#2C3E70"/>
		</linearGradient>
		<path style="fill:url(#SVGID_00000165934646555446163880000002327698972768967860_);" d="M257.8,688.4c0.2,0.5,0.1,0.7-0.4,0.5
			l-2.4-0.7c-0.6-0.2-1-0.5-1.3-1.1l-7.3-13.7l-3.1,10.3c-0.2,0.6-0.5,0.8-1.1,0.6L241,684c-0.6-0.2-0.8-0.5-0.6-1.1l7.1-23.2
			c0.2-0.6,0.5-0.8,1.1-0.6l1.2,0.4c0.6,0.2,0.8,0.5,0.6,1.1l-3.1,10.3l13.7-7.3c0.6-0.3,1.1-0.4,1.7-0.2l2.4,0.7
			c0.5,0.1,0.5,0.5,0.1,0.7l-15.9,8.1L257.8,688.4z"/>
		
			<linearGradient id="SVGID_00000141440236281979386460000002804644496753440177_" gradientUnits="userSpaceOnUse" x1="268.8754" y1="679.45" x2="277.4245" y2="679.45">
			<stop  offset="0" style="stop-color:#0B1852"/>
			<stop  offset="0.3098" style="stop-color:#101E56"/>
			<stop  offset="0.7112" style="stop-color:#1E2E63"/>
			<stop  offset="1" style="stop-color:#2C3E70"/>
		</linearGradient>
		<path style="fill:url(#SVGID_00000141440236281979386460000002804644496753440177_);" d="M271.9,691.6c-0.1,0.6-0.5,0.8-1.1,0.7
			l-1.2-0.3c-0.6-0.1-0.8-0.5-0.7-1.1l5.5-23.6c0.1-0.6,0.5-0.8,1.1-0.7l1.2,0.3c0.6,0.1,0.8,0.5,0.7,1.1L271.9,691.6z"/>
		
			<linearGradient id="SVGID_00000074432741721682322100000001020342660815735953_" gradientUnits="userSpaceOnUse" x1="284.7755" y1="683.9973" x2="307.0287" y2="683.9973">
			<stop  offset="0" style="stop-color:#0B1852"/>
			<stop  offset="0.3098" style="stop-color:#101E56"/>
			<stop  offset="0.7112" style="stop-color:#1E2E63"/>
			<stop  offset="1" style="stop-color:#2C3E70"/>
		</linearGradient>
		<path style="fill:url(#SVGID_00000074432741721682322100000001020342660815735953_);" d="M302.7,697.6c0.3,0.4,0.1,0.7-0.4,0.6
			l-2.5-0.4c-0.6-0.1-1-0.4-1.4-0.9l-9-12.6l-1.7,10.6c-0.1,0.6-0.4,0.8-1,0.7l-1.2-0.2c-0.6-0.1-0.8-0.4-0.7-1l3.9-23.9
			c0.1-0.6,0.4-0.8,1-0.7l1.2,0.2c0.6,0.1,0.8,0.4,0.7,1l-1.7,10.6l12.6-9.1c0.5-0.4,1-0.5,1.6-0.4l2.5,0.4c0.5,0.1,0.6,0.4,0.1,0.7
			L292,683.3L302.7,697.6z"/>
		
			<linearGradient id="SVGID_00000061443392531897682130000006628407913307037865_" gradientUnits="userSpaceOnUse" x1="314.0811" y1="687.2903" x2="333.6215" y2="687.2903">
			<stop  offset="0" style="stop-color:#0B1852"/>
			<stop  offset="0.3098" style="stop-color:#101E56"/>
			<stop  offset="0.7112" style="stop-color:#1E2E63"/>
			<stop  offset="1" style="stop-color:#2C3E70"/>
		</linearGradient>
		<path style="fill:url(#SVGID_00000061443392531897682130000006628407913307037865_);" d="M332.1,700c0,0.6-0.4,0.9-1,0.8l-1.3-0.1
			c-0.6,0-0.9-0.4-0.8-1l0.7-8.7l-11.8-0.9l-0.7,8.7c0,0.6-0.4,0.9-1,0.8l-1.3-0.1c-0.6,0-0.9-0.4-0.8-1l1.6-21.2
			c0.2-3.2,1.5-3.7,4.2-3.5l10,0.8c2.7,0.2,3.9,0.9,3.7,4.1L332.1,700z M330,688.2l0.7-9.2c0.1-1-0.1-1.5-1.4-1.6l-8.8-0.7
			c-1.3-0.1-1.5,0.3-1.6,1.3l-0.7,9.2L330,688.2z"/>
		
			<linearGradient id="SVGID_00000161610520694832904430000013167938382139354555_" gradientUnits="userSpaceOnUse" x1="343" y1="688.1" x2="360.8" y2="688.1">
			<stop  offset="0" style="stop-color:#0B1852"/>
			<stop  offset="0.3098" style="stop-color:#101E56"/>
			<stop  offset="0.7112" style="stop-color:#1E2E63"/>
			<stop  offset="1" style="stop-color:#2C3E70"/>
		</linearGradient>
		<path style="fill:url(#SVGID_00000161610520694832904430000013167938382139354555_);" d="M353.9,700.3c0,0.6-0.3,0.9-0.9,0.9h-1.3
			c-0.6,0-0.9-0.3-0.9-0.9l-0.4-22.2l-6.5,0.1c-0.6,0-0.9-0.3-0.9-0.9v-1.1c0-0.6,0.3-0.9,0.9-0.9l16-0.3c0.6,0,0.9,0.3,0.9,0.9v1.1
			c0,0.6-0.3,0.9-0.9,0.9l-6.5,0.1L353.9,700.3z"/>
		
			<linearGradient id="SVGID_00000142148575171197561860000006744080101138402716_" gradientUnits="userSpaceOnUse" x1="370.3551" y1="687.0403" x2="390.219" y2="687.0403">
			<stop  offset="0" style="stop-color:#0B1852"/>
			<stop  offset="0.3098" style="stop-color:#101E56"/>
			<stop  offset="0.7112" style="stop-color:#1E2E63"/>
			<stop  offset="1" style="stop-color:#2C3E70"/>
		</linearGradient>
		<path style="fill:url(#SVGID_00000142148575171197561860000006744080101138402716_);" d="M390.2,698.2c0.1,0.6-0.2,0.9-0.8,1
			l-1.3,0.1c-0.6,0.1-0.9-0.2-1-0.8l-0.8-8.7l-11.7,1l0.8,8.7c0.1,0.6-0.2,0.9-0.8,1l-1.3,0.1c-0.6,0.1-0.9-0.2-1-0.8l-1.9-21.2
			c-0.3-3.2,0.9-3.9,3.6-4.2l10-0.9c2.7-0.2,4,0.3,4.3,3.5L390.2,698.2z M386.1,686.9l-0.8-9.2c-0.1-1-0.3-1.4-1.6-1.3l-8.8,0.8
			c-1.3,0.1-1.4,0.5-1.3,1.6l0.8,9.2L386.1,686.9z"/>
		
			<linearGradient id="SVGID_00000154388212103944581530000012965374125818102945_" gradientUnits="userSpaceOnUse" x1="401.2754" y1="687.1" x2="410.9246" y2="687.1">
			<stop  offset="0" style="stop-color:#0B1852"/>
			<stop  offset="0.3098" style="stop-color:#101E56"/>
			<stop  offset="0.7112" style="stop-color:#1E2E63"/>
			<stop  offset="1" style="stop-color:#2C3E70"/>
		</linearGradient>
		<path style="fill:url(#SVGID_00000154388212103944581530000012965374125818102945_);" d="M410.9,686.9c0.1,0.6-0.1,0.9-0.7,1
			l-7.7,1.3c-0.6,0.1-0.9-0.1-1-0.7l-0.2-1.2c-0.1-0.6,0.1-0.9,0.7-1l7.7-1.3c0.6-0.1,0.9,0.1,1,0.7L410.9,686.9z"/>
		
			<linearGradient id="SVGID_00000066497887293565979850000008191433681622920340_" gradientUnits="userSpaceOnUse" x1="419.2435" y1="678.6" x2="441.5097" y2="678.6">
			<stop  offset="0" style="stop-color:#0B1852"/>
			<stop  offset="0.3098" style="stop-color:#101E56"/>
			<stop  offset="0.7112" style="stop-color:#1E2E63"/>
			<stop  offset="1" style="stop-color:#2C3E70"/>
		</linearGradient>
		<path style="fill:url(#SVGID_00000066497887293565979850000008191433681622920340_);" d="M438.4,690.1l-9.7,2.4
			c-2.6,0.6-4,0.3-4.8-2.8l-4.4-17.9c-0.8-3.1,0.3-4,2.9-4.7l9.7-2.4c2.6-0.6,4-0.3,4.8,2.8l0.7,2.9c0.1,0.6-0.1,0.9-0.7,1.1
			l-1.2,0.3c-0.6,0.1-0.9-0.1-1.1-0.7l-0.6-2.5c-0.2-1-0.6-1.4-1.8-1.1l-8.6,2.1c-1.2,0.3-1.3,0.7-1.1,1.8l4.1,16.9
			c0.2,1,0.6,1.3,1.8,1.1l8.6-2.1c1.3-0.3,1.3-0.7,1.1-1.7l-0.6-2.5c-0.1-0.6,0.1-0.9,0.7-1.1l1.2-0.3c0.6-0.1,0.9,0.1,1.1,0.7
			l0.7,2.9C442.1,688.5,441,689.4,438.4,690.1z"/>
		
			<linearGradient id="SVGID_00000050646914743305849730000015557513103967037579_" gradientUnits="userSpaceOnUse" x1="446.2249" y1="670.7522" x2="470.6468" y2="670.7522">
			<stop  offset="0" style="stop-color:#0B1852"/>
			<stop  offset="0.3098" style="stop-color:#101E56"/>
			<stop  offset="0.7112" style="stop-color:#1E2E63"/>
			<stop  offset="1" style="stop-color:#2C3E70"/>
		</linearGradient>
		<path style="fill:url(#SVGID_00000050646914743305849730000015557513103967037579_);" d="M470.4,679.4c0.4,0.4,0.3,0.7-0.2,0.9
			l-1.4,0.5c-0.6,0.2-1,0.1-1.6-0.3l-8.4-6.9l-4.7,1.6l2.9,8.6c0.2,0.6,0,0.9-0.6,1.1l-1.2,0.4c-0.6,0.2-0.9,0-1.1-0.6l-7.8-22.9
			c-0.2-0.6,0-0.9,0.6-1.1l12.1-4.1c2.6-0.9,4-0.7,5,2.3l2.7,8c1,3,0,4-2.5,4.9l-2.2,0.7L470.4,679.4z M463.7,667.3l-2.4-7
			c-0.3-1-0.7-1.3-1.9-0.9l-9.5,3.2l3.3,9.7l9.5-3.2C464,668.7,464,668.3,463.7,667.3z"/>
		
			<linearGradient id="SVGID_00000063631050889645229530000004444218423243587512_" gradientUnits="userSpaceOnUse" x1="472.9063" y1="659.95" x2="497.6936" y2="659.95">
			<stop  offset="0" style="stop-color:#0B1852"/>
			<stop  offset="0.3098" style="stop-color:#101E56"/>
			<stop  offset="0.7112" style="stop-color:#1E2E63"/>
			<stop  offset="1" style="stop-color:#2C3E70"/>
		</linearGradient>
		<path style="fill:url(#SVGID_00000063631050889645229530000004444218423243587512_);" d="M497.6,667.8c0.2,0.6,0.1,0.9-0.5,1.2
			l-13.2,5.8c-0.6,0.2-0.9,0.1-1.2-0.5l-9.7-22.2c-0.2-0.6-0.1-0.9,0.5-1.2l13.2-5.8c0.6-0.2,0.9-0.1,1.2,0.5l0.4,1
			c0.2,0.6,0.1,0.9-0.5,1.2l-11.2,4.9l3.5,8l9.1-4c0.6-0.2,0.9-0.1,1.2,0.5l0.4,1c0.2,0.6,0.1,0.9-0.5,1.2l-9.1,4l3.5,8l11.2-4.9
			c0.6-0.2,0.9-0.1,1.2,0.5L497.6,667.8z"/>
		
			<linearGradient id="SVGID_00000098936533010072074390000016045718319721040540_" gradientUnits="userSpaceOnUse" x1="497.54" y1="647.8469" x2="524.4638" y2="647.8469">
			<stop  offset="0" style="stop-color:#0B1852"/>
			<stop  offset="0.3098" style="stop-color:#101E56"/>
			<stop  offset="0.7112" style="stop-color:#1E2E63"/>
			<stop  offset="1" style="stop-color:#2C3E70"/>
		</linearGradient>
		<path style="fill:url(#SVGID_00000098936533010072074390000016045718319721040540_);" d="M524.3,654c0.3,0.5,0.2,0.9-0.4,1.2
			l-1.1,0.6c-0.5,0.3-0.9,0.2-1.2-0.4l-4.2-7.7l-10.4,5.6l4.2,7.7c0.3,0.5,0.2,0.9-0.4,1.2l-1.1,0.6c-0.5,0.3-0.9,0.2-1.2-0.4
			l-10.2-18.7c-1.5-2.8-0.7-4,1.7-5.3l8.8-4.8c2.4-1.3,3.8-1.4,5.3,1.5L524.3,654z M516.1,645.2l-4.4-8.1c-0.5-0.9-0.9-1.2-2-0.6
			l-7.8,4.2c-1.1,0.6-1.1,1.1-0.6,2l4.4,8.1L516.1,645.2z"/>
		
			<linearGradient id="SVGID_00000038411177333947708360000004409975228123515311_" gradientUnits="userSpaceOnUse" x1="520.503" y1="631.1" x2="542.897" y2="631.1">
			<stop  offset="0" style="stop-color:#0B1852"/>
			<stop  offset="0.3098" style="stop-color:#101E56"/>
			<stop  offset="0.7112" style="stop-color:#1E2E63"/>
			<stop  offset="1" style="stop-color:#2C3E70"/>
		</linearGradient>
		<path style="fill:url(#SVGID_00000038411177333947708360000004409975228123515311_);" d="M542.7,642.5c0.3,0.5,0.3,0.9-0.3,1.2
			l-1.1,0.7c-0.5,0.3-0.9,0.3-1.2-0.3l-12.2-18.6l-5.4,3.5c-0.5,0.3-0.9,0.3-1.2-0.3l-0.6-0.9c-0.3-0.5-0.3-0.9,0.3-1.2l13.4-8.8
			c0.5-0.3,0.9-0.3,1.2,0.3l0.6,0.9c0.3,0.5,0.3,0.9-0.3,1.2l-5.4,3.6L542.7,642.5z"/>
		
			<linearGradient id="SVGID_00000183949401362173936390000016240935371314764425_" gradientUnits="userSpaceOnUse" x1="542.8531" y1="621.3499" x2="560.3468" y2="621.3499">
			<stop  offset="0" style="stop-color:#0B1852"/>
			<stop  offset="0.3098" style="stop-color:#101E56"/>
			<stop  offset="0.7112" style="stop-color:#1E2E63"/>
			<stop  offset="1" style="stop-color:#2C3E70"/>
		</linearGradient>
		<path style="fill:url(#SVGID_00000183949401362173936390000016240935371314764425_);" d="M560.1,630.1c0.4,0.5,0.3,0.9-0.2,1.3
			l-1,0.8c-0.5,0.4-0.9,0.3-1.3-0.2l-14.5-19.4c-0.4-0.5-0.3-0.9,0.2-1.3l1-0.8c0.5-0.4,0.9-0.3,1.3,0.2L560.1,630.1z"/>
		
			<linearGradient id="SVGID_00000168082740210371055090000015035702959114413738_" gradientUnits="userSpaceOnUse" x1="553.2115" y1="605.6335" x2="578.0688" y2="605.6335">
			<stop  offset="0" style="stop-color:#0B1852"/>
			<stop  offset="0.3098" style="stop-color:#101E56"/>
			<stop  offset="0.7112" style="stop-color:#1E2E63"/>
			<stop  offset="1" style="stop-color:#2C3E70"/>
		</linearGradient>
		<path style="fill:url(#SVGID_00000168082740210371055090000015035702959114413738_);" d="M577.9,615.8c0.3,0.6,0.2,1-0.3,1.4
			l-1.6,1.3c-0.5,0.4-0.9,0.4-1.4,0.1l-21-14c-0.5-0.3-0.5-0.7-0.1-1.1l1.1-0.9c0.5-0.4,0.9-0.4,1.4-0.1l17.9,12l-9-19.5
			c-0.3-0.6-0.2-1,0.3-1.4l1.1-0.9c0.5-0.4,0.8-0.3,1.1,0.2L577.9,615.8z"/>
		
			<linearGradient id="SVGID_00000039133405330939848010000001163377926843786121_" gradientUnits="userSpaceOnUse" x1="574.4" y1="588.85" x2="603.6" y2="588.85">
			<stop  offset="0" style="stop-color:#0B1852"/>
			<stop  offset="0.3098" style="stop-color:#101E56"/>
			<stop  offset="0.7112" style="stop-color:#1E2E63"/>
			<stop  offset="1" style="stop-color:#2C3E70"/>
		</linearGradient>
		<path style="fill:url(#SVGID_00000039133405330939848010000001163377926843786121_);" d="M603.3,591.7c0.4,0.4,0.4,0.8,0,1.3
			l-10.2,10.2c-0.4,0.4-0.8,0.4-1.3,0L574.7,586c-0.4-0.4-0.4-0.8,0-1.3l10.2-10.2c0.4-0.4,0.8-0.4,1.3,0l0.8,0.8
			c0.4,0.4,0.4,0.8,0,1.3l-8.7,8.7l6.2,6.1l7-7c0.4-0.4,0.8-0.4,1.3,0l0.8,0.8c0.4,0.4,0.4,0.8,0,1.3l-7,7l6.2,6.1l8.7-8.7
			c0.4-0.4,0.8-0.4,1.3,0L603.3,591.7z"/>
	</g>
	<g>
		<path class="st21" d="M443.3,85.5c-11,0-20,9-20,20c0-11-9-20-20-20h-56.7v55.8c0,11,9,20,20,20c-11,0-20,9-20,20v55.8h56.7
			c11,0,20-9,20-20c0,11,9,20,20,20H500v-55.8c0-11-9-20-20-20c11,0,20-9,20-20V85.5H443.3z"/>
		
			<linearGradient id="SVGID_00000045585600818784833360000001908633634087020464_" gradientUnits="userSpaceOnUse" x1="342.4139" y1="511.3882" x2="485.114" y2="511.3882" gradientTransform="matrix(-3.371424e-07 -1 -1 3.371424e-07 934.6883 575.1138)">
			<stop  offset="0" style="stop-color:#0B1852"/>
			<stop  offset="0.3098" style="stop-color:#101E56"/>
			<stop  offset="0.7112" style="stop-color:#1E2E63"/>
			<stop  offset="1" style="stop-color:#2C3E70"/>
		</linearGradient>
		<path style="fill:url(#SVGID_00000045585600818784833360000001908633634087020464_);" d="M418.7,150.7V105c0-8.3-6.7-15-15-15
			h-52.6v51.8c0,8.3,6.7,15,15,15h46.6l4.5,4.5l-4.5,4.5h-46.1c-8.3,0-15,6.7-15,15v51.8h52.6c8.3,0,15-6.7,15-15v-46.1l4.1-4.1
			l4.6,4.6v45.7c0,8.3,6.7,15,15,15h52.6v-51.8c0-8.3-6.7-15-15-15h-46.6l-4.5-4.5l4.5-4.5h46.6c8.3,0,15-6.7,15-15V90h-52.6
			c-8.3,0-15,6.7-15,15v45.7l-4.6,4.6L418.7,150.7z"/>
	</g>
	<g>
		
			<linearGradient id="SVGID_00000181075251314653419420000001156232261263571861_" gradientUnits="userSpaceOnUse" x1="200.2315" y1="291.1017" x2="346.5036" y2="291.1017">
			<stop  offset="0" style="stop-color:#0B1852"/>
			<stop  offset="0.3098" style="stop-color:#101E56"/>
			<stop  offset="0.7112" style="stop-color:#1E2E63"/>
			<stop  offset="1" style="stop-color:#2C3E70"/>
		</linearGradient>
		<path style="fill:url(#SVGID_00000181075251314653419420000001156232261263571861_);" d="M342.1,400.1
			C281.3,397.5,233.2,345,238,282.5c4.1-53.4,47.3-96.4,100.7-100.3c0.2,0,0.5,0,0.7,0v-37.4c-0.4,0-0.7,0-1.1,0
			C263.9,149,204,209.6,200.4,283.9c-3.9,82.3,60.4,150.7,141.2,153.5c2.7,0.1,4.9-2,4.9-4.7v-28
			C346.6,402.3,344.6,400.2,342.1,400.1z"/>
		
			<linearGradient id="SVGID_00000085935440269868106900000004897906843301550490_" gradientUnits="userSpaceOnUse" x1="200.0301" y1="417.9226" x2="500.0769" y2="417.9226">
			<stop  offset="0" style="stop-color:#0B1852"/>
			<stop  offset="0.3098" style="stop-color:#101E56"/>
			<stop  offset="0.7112" style="stop-color:#1E2E63"/>
			<stop  offset="1" style="stop-color:#2C3E70"/>
		</linearGradient>
		<path style="fill:url(#SVGID_00000085935440269868106900000004897906843301550490_);" d="M241.1,464.2
			c18.9,42.6,63.1,71.7,113.4,68c56.2-4.1,101.6-49.3,105.9-105.5c5-65.6-45.6-120.9-109.5-123.6c-2.6-0.1-4.7-2.3-4.7-4.9v-29.4
			c0-2.8,2.4-5,5.2-4.9c84.9,2.9,152.6,74.9,148.5,161.5c-3.7,78.2-66.8,141.9-145,146.3c-71.2,4-132.9-40.7-154.6-103.8
			c-1.1-3.2,1.3-6.6,4.7-6.6h31.6C238.5,461.2,240.3,462.4,241.1,464.2z"/>
	</g>
	
		<linearGradient id="SVGID_00000068637427439166066890000001225273779371946667_" gradientUnits="userSpaceOnUse" x1="331" y1="351.3" x2="369" y2="351.3">
		<stop  offset="0" style="stop-color:#0B1852"/>
		<stop  offset="0.3098" style="stop-color:#101E56"/>
		<stop  offset="0.7112" style="stop-color:#1E2E63"/>
		<stop  offset="1" style="stop-color:#2C3E70"/>
	</linearGradient>
	<circle style="fill:url(#SVGID_00000068637427439166066890000001225273779371946667_);" cx="350" cy="351.3" r="19"/>
</g>
</svg>
