<?xml version="1.0" encoding="utf-8"?>
<!-- Generator: Adobe Illustrator 23.0.3, SVG Export Plug-In . SVG Version: 6.00 Build 0)  -->
<svg version="1.1" id="レイヤー_1" xmlns="http://www.w3.org/2000/svg" xmlns:xlink="http://www.w3.org/1999/xlink" x="0px"
	 y="0px" viewBox="0 0 700 700" style="enable-background:new 0 0 700 700;" xml:space="preserve">
<style type="text/css">
	.st0{fill:#FFFFFF;}
	.st1{fill:#036EB8;}
</style>
<path class="st0" d="M167.2,200.9h1.3c0.9,4.2,2,7.7,3.3,10.6c1.4,2.9,2.8,5.2,4.5,7.1s3.3,3.3,5.1,4.3c1.8,1,3.6,1.7,5.4,2.2
	c1.8,0.5,3.6,0.7,5.2,0.8c1.7,0.1,3.2,0.1,4.7,0.1c4.1,0,7.5-0.6,10.1-1.9c2.6-1.2,4.7-2.8,6.3-4.7c1.5-1.9,2.6-4,3.3-6.2
	c0.6-2.2,0.9-4.2,0.9-6.1c0-2.7-0.5-5-1.5-7c-1-1.9-2.3-3.6-3.8-4.9c-1.6-1.4-3.2-2.5-5.1-3.3c-1.8-0.9-3.5-1.5-5.2-2l-13.4-4.1
	c-6.3-1.9-11-4.5-14.2-7.7c-3.2-3.2-4.8-7.4-4.8-12.8c0-3.5,0.6-6.7,1.9-9.7c1.2-3,3-5.6,5.2-7.7c2.2-2.2,4.9-3.9,8.1-5.1
	c3.1-1.2,6.6-1.9,10.3-1.9c2.7,0,5,0.2,6.8,0.7c1.8,0.5,3.4,1,4.7,1.6c1.3,0.6,2.5,1.1,3.5,1.6c1,0.5,2.1,0.7,3.2,0.7
	c1,0,1.7-0.1,2-0.4c0.3-0.3,0.8-0.9,1.5-2h1.6v21h-1.4c-0.5-2.8-1.3-5.5-2.4-8.1c-1.1-2.6-2.6-4.9-4.4-6.9c-1.8-2-3.9-3.6-6.5-4.8
	c-2.5-1.2-5.4-1.8-8.8-1.8c-1.9,0-3.9,0.3-6.2,0.8c-2.2,0.5-4.3,1.4-6.3,2.6c-1.9,1.2-3.5,2.9-4.8,4.9c-1.3,2-1.9,4.6-1.9,7.7
	c0,2.5,0.5,4.6,1.5,6.3c1,1.7,2.3,3.2,3.9,4.4c1.6,1.2,3.4,2.2,5.3,3s4,1.5,6,2.2l14.1,4.4c1.5,0.5,3.3,1.1,5.6,1.9
	c2.2,0.8,4.4,1.9,6.6,3.5c2.1,1.6,4,3.6,5.5,6.2c1.5,2.6,2.3,5.8,2.3,9.8c0,3.6-0.7,7.1-2,10.4c-1.4,3.3-3.3,6.2-5.9,8.7
	c-2.6,2.5-5.7,4.5-9.3,6c-3.6,1.5-7.7,2.3-12.3,2.3c-1.6,0-3.1,0-4.3-0.1c-1.2,0-2.4-0.1-3.5-0.3c-1.1-0.2-2.2-0.3-3.3-0.5
	c-1.1-0.2-2.3-0.5-3.6-0.9c-1.6-0.5-3.2-1-5-1.6c-1.8-0.6-3.3-0.9-4.6-0.9c-1.2,0-2,0.2-2.4,0.7c-0.4,0.5-0.8,1.1-1.1,1.9h-1.7
	V200.9z"/>
<path class="st0" d="M259.3,142.1h37.4v1.6h-12.9v56.1c0,4.6,0.4,8.6,1.2,11.8c0.8,3.2,2,5.8,3.7,7.8c1.6,2,3.6,3.4,6,4.2
	c2.4,0.9,5.2,1.3,8.3,1.3c4.3,0,8.2-0.6,11.5-1.9c3.3-1.3,6.2-3.5,8.6-6.8c0.8-1,1.5-2,2-3c0.6-1,1.1-2.2,1.5-3.5
	c0.4-1.4,0.8-3,1-4.9c0.2-1.9,0.3-4.2,0.3-7v-54h-12.9v-1.6h27.5v1.6h-12.9v56.4c0,3.3-0.3,6.2-1,8.9c-0.7,2.7-2.1,5.4-4.3,8.3
	c-2.1,2.8-5,5-8.7,6.7c-3.7,1.7-8.6,2.6-14.8,2.6c-9.3,0-16.4-2.3-21.3-6.9c-4.9-4.6-7.4-11.6-7.4-21v-55h-12.9V142.1z"/>
<path class="st0" d="M379.9,142.5h55.4l-48.7,81.1h25.6c3.9,0,6.9-0.6,9-1.7c2.1-1.1,4-2.5,5.6-4c1.7-1.5,3.4-3.9,5.2-7.1
	c1.8-3.2,3.1-6.9,4-11h1.3v25.5H373l48.5-81.1h-18c-6.3,0-11.2,1.6-14.6,4.9c-3.5,3.3-6,7.8-7.6,13.7h-1.3V142.5z"/>
<path class="st0" d="M460.1,142.1h37.4v1.6h-12.9v56.1c0,4.6,0.4,8.6,1.2,11.8c0.8,3.2,2,5.8,3.7,7.8s3.6,3.4,6,4.2
	c2.4,0.9,5.2,1.3,8.3,1.3c4.3,0,8.2-0.6,11.5-1.9c3.3-1.3,6.2-3.5,8.6-6.8c0.8-1,1.5-2,2-3c0.6-1,1.1-2.2,1.5-3.5
	c0.4-1.4,0.8-3,1-4.9c0.2-1.9,0.3-4.2,0.3-7v-54h-12.9v-1.6h27.5v1.6h-12.9v56.4c0,3.3-0.3,6.2-1,8.9c-0.7,2.7-2.1,5.4-4.3,8.3
	c-2.1,2.8-5,5-8.7,6.7c-3.7,1.7-8.6,2.6-14.8,2.6c-9.3,0-16.4-2.3-21.3-6.9c-4.9-4.6-7.4-11.6-7.4-21v-55h-12.9V142.1z"/>
<path class="st0" d="M167.2,358.3h1.3c0.9,4.2,2,7.7,3.3,10.6c1.4,2.9,2.8,5.2,4.5,7.1c1.6,1.9,3.3,3.3,5.1,4.3
	c1.8,1,3.6,1.7,5.4,2.2c1.8,0.5,3.6,0.7,5.2,0.8c1.7,0.1,3.2,0.1,4.7,0.1c4.1,0,7.5-0.6,10.1-1.9c2.6-1.2,4.7-2.8,6.3-4.7
	c1.5-1.9,2.6-4,3.3-6.2c0.6-2.2,0.9-4.2,0.9-6.1c0-2.7-0.5-5-1.5-7c-1-1.9-2.3-3.6-3.8-4.9c-1.6-1.4-3.2-2.5-5.1-3.3
	c-1.8-0.9-3.5-1.5-5.2-2l-13.4-4.1c-6.3-1.9-11-4.5-14.2-7.7c-3.2-3.2-4.8-7.4-4.8-12.8c0-3.5,0.6-6.7,1.9-9.7c1.2-3,3-5.6,5.2-7.7
	c2.2-2.2,4.9-3.9,8.1-5.1c3.1-1.2,6.6-1.9,10.3-1.9c2.7,0,5,0.2,6.8,0.7c1.8,0.5,3.4,1,4.7,1.6c1.3,0.6,2.5,1.1,3.5,1.6
	c1,0.5,2.1,0.7,3.2,0.7c1,0,1.7-0.1,2-0.4c0.3-0.3,0.8-0.9,1.5-2h1.6v21h-1.4c-0.5-2.8-1.3-5.5-2.4-8.1c-1.1-2.6-2.6-4.9-4.4-6.9
	c-1.8-2-3.9-3.6-6.5-4.8c-2.5-1.2-5.4-1.8-8.8-1.8c-1.9,0-3.9,0.3-6.2,0.8c-2.2,0.5-4.3,1.4-6.3,2.6c-1.9,1.2-3.5,2.9-4.8,4.9
	c-1.3,2-1.9,4.6-1.9,7.7c0,2.5,0.5,4.6,1.5,6.3c1,1.7,2.3,3.2,3.9,4.4c1.6,1.2,3.4,2.2,5.3,3s4,1.5,6,2.2l14.1,4.4
	c1.5,0.5,3.3,1.1,5.6,1.9c2.2,0.8,4.4,1.9,6.6,3.5c2.1,1.6,4,3.6,5.5,6.2c1.5,2.6,2.3,5.8,2.3,9.8c0,3.6-0.7,7.1-2,10.4
	c-1.4,3.3-3.3,6.2-5.9,8.7c-2.6,2.5-5.7,4.5-9.3,6c-3.6,1.5-7.8,2.3-12.3,2.3c-1.6,0-3.1,0-4.3-0.1c-1.2,0-2.4-0.1-3.5-0.3
	c-1.1-0.2-2.2-0.3-3.3-0.5c-1.1-0.2-2.3-0.5-3.6-0.9c-1.6-0.5-3.2-1-5-1.6c-1.8-0.6-3.3-0.9-4.6-0.9c-1.2,0-2,0.2-2.4,0.7
	c-0.4,0.5-0.8,1.1-1.1,1.9h-1.7V358.3z"/>
<path class="st0" d="M282.2,379.8h12.9v-79.5h-12.9v-1.6h37.4v1.6h-12.9v79.5h12.9v1.6h-37.4V379.8z"/>
<path class="st0" d="M363.4,380.2h12.9v-79.5h-12.9v-1.6h36.5v1.6h-12v36.9h1.2l35.1-36.9h-12.1v-1.6h24v1.6h-9.6L397,332l42.2,48.2
	h7.7v1.6h-33.6v-1.6h10.5l-34.8-40.9h-0.9v40.9h12v1.6h-36.5V380.2z"/>
<path class="st0" d="M483.1,380.6H496v-79.5h-12.9v-1.6h37.4v1.6h-12.9v79.5h12.9v1.6h-37.4V380.6z"/>
<path class="st0" d="M155,556.3h12.9v-79.5H155v-1.6h36.5v1.6h-12v37h1.2l35.1-37h-12.1v-1.6h24.1v1.6h-9.6l-29.5,31.3l42.2,48.2
	h7.7v1.6h-33.6v-1.6h10.5l-34.9-40.9h-0.9v40.9h12v1.6H155V556.3z"/>
<path class="st0" d="M257.7,557.3H268l31.4-83.2h2.8l31.6,83.2h10.3v1.6h-35.8v-1.6h12.9L309,525h-27l-12.2,32.3h12.9v1.6h-25V557.3
	z M295.5,489.6l-12.8,33.8h25.6L295.5,489.6z"/>
<path class="st0" d="M386.4,555.9h12.9v-79.5h-6.7c-1.6,0-3.3,0.1-5.2,0.4c-1.9,0.3-3.9,1-5.9,2.3c-2,1.2-3.9,3.2-5.7,5.9
	c-1.8,2.7-3.4,6.4-4.7,11.1h-1.3v-21.3h70.7V496h-1.3c-1.3-4.7-2.9-8.4-4.7-11.1c-1.8-2.7-3.7-4.6-5.7-5.9c-2-1.2-3.9-2-5.9-2.3
	c-1.9-0.3-3.7-0.4-5.2-0.4h-6.7v79.5h12.9v1.6h-37.4V555.9z"/>
<path class="st0" d="M458.6,557.3h10.2l31.4-83.2h2.8l31.6,83.2H545v1.6h-35.8v-1.6h12.9L509.9,525h-27l-12.2,32.3h12.9v1.6h-25
	V557.3z M496.4,489.6l-12.8,33.8h25.6L496.4,489.6z"/>
<g>
	<path class="st1" d="M331.9,360.2h-11c-1.1,0-2-0.9-2-2v-9.3c0-4.4,3.6-8,8-8h13v11.3C339.9,356.6,336.3,360.2,331.9,360.2z"/>
	<path class="st1" d="M350.4,360.2h11c1.1,0,2-0.9,2-2v-9.3c0-4.4-3.6-8-8-8h-13v11.3C342.4,356.6,346,360.2,350.4,360.2z"/>
	<path class="st1" d="M350.4,319h11c1.1,0,2,0.9,2,2v9.3c0,4.4-3.6,8-8,8h-13V327C342.4,322.6,346,319,350.4,319z"/>
	<path class="st1" d="M331.9,319h-11c-1.1,0-2,0.9-2,2v9.3c0,4.4,3.6,8,8,8h13V327C339.9,322.6,336.3,319,331.9,319z"/>
	
		<rect x="338.3" y="339.3" transform="matrix(0.7071 0.7071 -0.7071 0.7071 340.0753 -141.7778)" class="st1" width="5.7" height="0.6"/>
	
		<rect x="338.3" y="339.3" transform="matrix(0.7071 -0.7071 0.7071 0.7071 -140.2175 340.7216)" class="st1" width="5.7" height="0.6"/>
</g>
<path class="st0" d="M683.7,17.4v666.9H16.8V17.4H683.7 M687.7,13.4H12.8v674.9h674.9V13.4L687.7,13.4z"/>
</svg>
