<?xml version="1.0" encoding="utf-8"?>
<!-- Generator: Adobe Illustrator 23.0.1, SVG Export Plug-In . SVG Version: 6.00 Build 0)  -->
<svg version="1.1" id="_x32_" xmlns="http://www.w3.org/2000/svg" xmlns:xlink="http://www.w3.org/1999/xlink" x="0px" y="0px"
	 viewBox="0 0 512 512" style="enable-background:new 0 0 512 512;" xml:space="preserve">
<style type="text/css">
	.st0{fill:#FFFFFF;}
</style>
<path class="st0" d="M405.6,163.4c0.1-0.2,0.2-0.3,0.4-0.5c-8.8,3.9-18.1,6.7-27.9,8.5c-2.3,0.3-4.7,0.6-7,0.8
	c9.9-6.1,17.9-14.9,23.1-25.4c1.4-2.6,2.7-5.2,3.7-8c-0.1,0.1-0.2,0.1-0.4,0.2c0.1-0.2,0.1-0.3,0.2-0.5
	c-11.9,7.1-25.1,12.2-39.1,14.9c-11.2-12-27.2-19.4-44.9-19.4c-34,0-61.6,27.6-61.6,61.6c0,4.4,0.5,8.7,1.4,12.9
	c0.1,0.4,0.1,0.7,0.1,1.1c-45-2.3-85.5-21.5-115.2-51.5c-4-4-7.8-8.2-11.3-12.7v0.1c-0.1-0.1-0.2-0.2-0.2-0.3
	c-5.3,9.1-8.3,19.7-8.3,30.9c0,17.6,7.5,33.5,19.3,44.7c2.4,2.3,4.9,4.5,7.6,6.5c-9.9-0.4-19.3-3.1-27.4-7.7c0,0.3,0,0.5,0,0.8
	c0,24.8,14.8,46,35.9,55.8c4.1,2,8.4,3.6,12.9,4.7c-5,1.3-10.3,2.1-15.7,2.1c-3.5,0-6.9-0.4-10.2-1c-0.3-0.1-0.7-0.1-1.1-0.2
	c0,0,0,0.1,0.1,0.1c-0.1,0-0.2,0-0.4,0c6.9,21.4,25.1,37.7,47.6,41.8c3.1,0.6,6.3,1,9.6,1.2c-21,16.4-47.5,26.2-76.2,26.2
	c-4,0-7.9-0.3-11.8-0.7c-0.9-0.2-1.8-0.2-2.7-0.4c0.2,0.1,0.4,0.2,0.5,0.3c-0.2,0-0.5,0-0.7,0c27.2,17.5,59.6,27.7,94.4,27.7
	c62.6,0,109.4-28.7,138.8-68c0.1-0.1,0.2-0.2,0.3-0.4c2.8-3.8,5.4-7.7,7.9-11.6c0.5-0.8,1.1-1.6,1.6-2.4c2.3-3.8,4.4-7.7,6.4-11.6
	c0.5-1,1.1-1.9,1.5-2.9c2.3-4.8,4.4-9.6,6.3-14.5c0-0.1,0-0.1,0.1-0.2c8-20.8,12.2-42.6,12.2-63.6c0-2.7-0.1-5.3-0.2-8
	c9.6-6.9,18.1-15.2,25.3-24.5c1.9-2.3,3.8-4.6,5.5-7C405.9,163.3,405.8,163.4,405.6,163.4z"/>
<g>
	<path class="st0" d="M256.1,16c32.4,0,63.8,6.3,93.4,18.8c28.6,12.1,54.2,29.4,76.3,51.4c22,22,39.3,47.7,51.4,76.3
		c12.5,29.6,18.8,61,18.8,93.4s-6.3,63.8-18.8,93.4c-12.1,28.6-29.4,54.2-51.4,76.3c-22,22-47.7,39.3-76.3,51.4
		c-29.6,12.5-61,18.8-93.4,18.8s-63.8-6.3-93.4-18.8c-28.6-12.1-54.2-29.4-76.3-51.4c-22-22-39.3-47.7-51.4-76.3
		c-12.5-29.6-18.8-61-18.8-93.4s6.3-63.8,18.8-93.4C47,134,64.3,108.3,86.4,86.3c22-22,47.7-39.3,76.3-51.4
		C192.2,22.3,223.7,16,256.1,16 M256.1,0C114.7,0,0.1,114.6,0.1,255.9s114.6,255.9,255.9,255.9S512,397.3,512,255.9S397.4,0,256.1,0
		L256.1,0z"/>
</g>
</svg>
