<?xml version="1.0" encoding="utf-8"?>
<!-- Generator: Adobe Illustrator 23.0.1, SVG Export Plug-In . SVG Version: 6.00 Build 0)  -->
<svg version="1.1" id="_x32_" xmlns="http://www.w3.org/2000/svg" xmlns:xlink="http://www.w3.org/1999/xlink" x="0px" y="0px"
	 viewBox="0 0 512 512" style="enable-background:new 0 0 512 512;" xml:space="preserve">
<style type="text/css">
	.st0{fill:#FFFFFF;}
</style>
<path class="st0" d="M218.5,162.3v46.4h-54.3v62.9h54.3v161.3h64.9V271.5h54.1l8.1-62.9h-62.2v-40.1c0-18.2,5.1-30.6,31.2-30.6h33.3
	l0,0V81.7c-5.8-0.8-25.5-2.5-48.5-2.5C251.3,79.2,218.5,108.5,218.5,162.3z"/>
<g>
	<path class="st0" d="M256.1,16c32.4,0,63.8,6.3,93.4,18.8c28.6,12.1,54.2,29.4,76.3,51.4c22,22,39.3,47.7,51.4,76.3
		c12.5,29.6,18.8,61,18.8,93.4s-6.3,63.8-18.8,93.4c-12.1,28.6-29.4,54.2-51.4,76.3c-22,22-47.7,39.3-76.3,51.4
		c-29.6,12.5-61,18.8-93.4,18.8s-63.8-6.3-93.4-18.8c-28.6-12.1-54.2-29.4-76.3-51.4c-22-22-39.3-47.7-51.4-76.3
		c-12.5-29.6-18.8-61-18.8-93.4s6.3-63.8,18.8-93.4C47,134,64.3,108.3,86.4,86.3c22-22,47.7-39.3,76.3-51.4
		C192.2,22.3,223.7,16,256.1,16 M256.1,0C114.7,0,0.1,114.6,0.1,255.9s114.6,255.9,255.9,255.9S512,397.3,512,255.9S397.4,0,256.1,0
		L256.1,0z"/>
</g>
</svg>
