<?xml version="1.0" encoding="utf-8"?>
<!-- Generator: Adobe Illustrator 23.0.3, SVG Export Plug-In . SVG Version: 6.00 Build 0)  -->
<svg version="1.1" id="レイヤー_1" xmlns="http://www.w3.org/2000/svg" xmlns:xlink="http://www.w3.org/1999/xlink" x="0px"
	 y="0px" viewBox="0 0 700 700" style="enable-background:new 0 0 700 700;" xml:space="preserve">
<style type="text/css">
	.st0{fill:#FFFFFF;}
</style>
<g>
	<path class="st0" d="M232.4,103.1c-42,42-54.2,102.7-36.5,155.6l0,0l0,0c6.7,20.1,17.8,39.1,33.2,55.5l-0.1,0.1L445,530.2
		c-0.6,0.6-1.2,1.2-1.8,1.8c-58.1,58.1-152.7,58.1-210.9,0l-1.8,1.8c59.1,59.1,155.3,59.1,214.5,0c41.7-41.7,54-101.8,36.9-154.4
		l0.1-0.1l-0.2-0.2c-6.8-20.9-18.3-40.5-34.4-57.4l0,0l-215-215c0.6-0.6,1.2-1.2,1.8-1.8c27.1-27.1,62.1-41.5,97.6-43.4v-2.6
		C295.6,60.8,260,75.5,232.4,103.1z M446.8,528.3L234.1,315.7c-15.5-15.5-26.8-33.6-34.1-52.9l255.4,255.4
		C452.7,521.7,449.8,525,446.8,528.3z M457,516.1L198.1,257.3c-2.8-8.3-4.8-16.9-6-25.5l272.8,272.8
		C462.5,508.5,459.8,512.4,457,516.1z M466.3,502.3L191.6,227.6c-0.8-6.8-1.1-13.6-1-20.5L473,489.5
		C471,493.8,468.7,498.1,466.3,502.3z M474.1,487L190.7,203.6c0.3-5.9,0.9-11.8,1.8-17.7l286.9,286.9
		C477.9,477.7,476.1,482.4,474.1,487z M480.4,470.2L193.1,182.9c1-5.3,2.2-10.5,3.8-15.7l287.3,287.3
		C483.2,459.8,481.9,465,480.4,470.2z M484.8,451.4l-287-287c1.5-4.8,3.3-9.5,5.4-14.2l283.5,283.5
		C486.4,439.7,485.7,445.6,484.8,451.4z M486.8,430.3L204.2,147.8c2-4.4,4.2-8.6,6.7-12.8l275,275
		C486.7,416.7,487,423.5,486.8,430.3z M485.4,405.8L212.3,132.7c2.4-4,5-7.9,7.9-11.6l259.4,259.4
		C482.3,388.8,484.2,397.3,485.4,405.8z M443.3,321.2c15.7,15.8,27.2,34.2,34.4,53.8l-256-256c2.8-3.6,5.8-7.1,8.9-10.5L443.3,321.2
		z"/>
	<path class="st0" d="M439,124.5h-32.1V90c0-12,10.3-21.7,23-21.7h25.6c3.6,0,6.5,2.8,6.5,6.2v28.3C462,114.7,451.7,124.5,439,124.5
		z M409,122.3h30c11.5,0,20.8-8.8,20.8-19.6V74.5c0-2.3-2-4.1-4.4-4.1h-25.6c-11.5,0-20.8,8.8-20.8,19.6V122.3z"/>
	<path class="st0" d="M443.4,124.5h-36.5V85.3c0-13.6,11.7-24.6,26-24.6h29.2c4,0,7.3,3.1,7.3,7v32.3
		C469.4,113.4,457.8,124.5,443.4,124.5z M409,122.3h34.3c13.2,0,23.9-10.1,23.9-22.5V67.6c0-2.7-2.3-4.8-5.2-4.8H433
		c-13.2,0-23.9,10.1-23.9,22.5V122.3z"/>
	<path class="st0" d="M447.5,124.5h-40.6V80.8c0-15.1,13-27.4,29-27.4h32.6c4.4,0,8,3.4,8,7.6v36
		C476.5,112.2,463.5,124.5,447.5,124.5z M409,122.3h38.5c14.8,0,26.8-11.3,26.8-25.2v-36c0-3-2.6-5.5-5.9-5.5h-32.6
		c-14.8,0-26.8,11.3-26.8,25.2V122.3z"/>
	<path class="st0" d="M455.4,184.7h-25.6c-12.7,0-23-9.7-23-21.7v-34.5H439c12.7,0,23,9.7,23,21.7v28.3
		C462,181.9,459,184.7,455.4,184.7z M409,130.6v32.4c0,10.8,9.3,19.6,20.8,19.6h25.6c2.4,0,4.4-1.8,4.4-4.1v-28.3
		c0-10.8-9.3-19.6-20.8-19.6H409z"/>
	<path class="st0" d="M462.1,192.3H433c-14.4,0-26-11-26-24.6v-39.2h36.5c14.4,0,26,11,26,24.6v32.3
		C469.4,189.2,466.2,192.3,462.1,192.3z M409,130.6v37.1c0,12.4,10.7,22.5,23.9,22.5h29.2c2.9,0,5.2-2.2,5.2-4.8v-32.3
		c0-12.4-10.7-22.5-23.9-22.5H409z"/>
	<path class="st0" d="M468.4,199.5h-32.6c-16,0-29-12.3-29-27.4v-43.7h40.6c16,0,29,12.3,29,27.4v36
		C476.5,196,472.9,199.5,468.4,199.5z M409,130.6v41.5c0,13.9,12,25.2,26.8,25.2h32.6c3.3,0,5.9-2.5,5.9-5.5v-36
		c0-13.9-12-25.2-26.8-25.2H409z"/>
	<path class="st0" d="M402.2,123.7h-34.5c-12,0-21.7-10.3-21.7-23V75.2c0-3.6,2.8-6.5,6.2-6.5h28.3c12,0,21.7,10.3,21.7,23V123.7z
		 M352.2,70.8c-2.3,0-4.1,2-4.1,4.4v25.6c0,11.5,8.8,20.8,19.6,20.8H400v-30c0-11.5-8.8-20.8-19.6-20.8H352.2z"/>
	<path class="st0" d="M402.2,123.7H363c-13.6,0-24.6-11.7-24.6-26V68.5c0-4,3.1-7.3,7-7.3h32.3c13.6,0,24.6,11.7,24.6,26V123.7z
		 M345.3,63.3c-2.7,0-4.8,2.3-4.8,5.2v29.2c0,13.2,10.1,23.9,22.5,23.9H400V87.2c0-13.2-10.1-23.9-22.5-23.9H345.3z"/>
	<path class="st0" d="M402.2,123.7h-43.7c-15.1,0-27.4-13-27.4-29V62.2c0-4.4,3.4-8,7.6-8h36c15.1,0,27.4,13,27.4,29V123.7z
		 M338.8,56.3c-3,0-5.5,2.6-5.5,5.9v32.6c0,14.8,11.3,26.8,25.2,26.8H400V83.1c0-14.8-11.3-26.8-25.2-26.8H338.8z"/>
	<path class="st0" d="M380.2,184.6h-28.3c-3.4,0-6.2-2.9-6.2-6.5v-25.6c0-12.7,9.7-23,21.7-23h34.5v32.1
		C401.9,174.3,392.1,184.6,380.2,184.6z M367.4,131.6c-10.8,0-19.6,9.3-19.6,20.8V178c0,2.4,1.8,4.4,4.1,4.4h28.3
		c10.8,0,19.6-9.3,19.6-20.8v-30H367.4z"/>
	<path class="st0" d="M377.2,192H345c-3.8,0-7-3.3-7-7.3v-29.2c0-14.4,11-26,24.6-26h39.2V166C401.9,180.4,390.8,192,377.2,192z
		 M362.7,131.6c-12.4,0-22.5,10.7-22.5,23.9v29.2c0,2.9,2.2,5.2,4.8,5.2h32.3c12.4,0,22.5-10.7,22.5-23.9v-34.3H362.7z"/>
	<path class="st0" d="M374.5,199.1h-36c-4.2,0-7.6-3.6-7.6-8v-32.6c0-16,12.3-29,27.4-29h43.7v40.6
		C401.9,186.1,389.6,199.1,374.5,199.1z M358.2,131.6c-13.9,0-25.2,12-25.2,26.8V191c0,3.3,2.5,5.9,5.5,5.9h36
		c13.9,0,25.2-12,25.2-26.8v-38.5H358.2z"/>
	<path class="st0" d="M127.9,489.3l-9.6-9.6l-9.1-10.1l-8.5-10.7l-7.9-11.1c-10.2-15.1-18.6-31.5-25.2-48.6
		c-6.6-17.1-11.3-34.9-14.2-53c-2.9-18.1-3.8-36.6-3-54.9c1.6-36.8,10.7-73.1,25.8-106.7c15.2-33.6,36.7-64.2,62.7-90.4
		c26.2-26,56.8-47.4,90.4-62.7c16.8-7.6,34.3-13.6,52.2-18c2.2-0.5,4.5-1.1,6.7-1.6l6.8-1.3c2.3-0.4,4.5-0.9,6.8-1.3l6.8-1
		c2.3-0.3,4.5-0.7,6.8-0.9l6.9-0.7c2.3-0.2,4.6-0.5,6.9-0.6l6.9-0.3c18.4-0.8,36.8,0.1,54.9,3c18.1,2.9,35.9,7.6,53,14.2
		c17.1,6.6,33.4,15,48.6,25.2l11.1,7.9l10.7,8.5l10.1,9.1l9.6,9.6l-10.1-9l-10.6-8.5l-11-7.9l-11.4-7.3c-15.4-9.3-31.8-17-48.8-22.8
		c-17-5.9-34.5-9.9-52.2-12.2c-17.7-2.2-35.7-2.8-53.5-1.6l-6.7,0.5c-2.2,0.1-4.4,0.5-6.6,0.7l-6.6,0.8c-2.2,0.3-4.4,0.7-6.6,1.1
		l-6.6,1.1c-2.2,0.4-4.4,0.9-6.5,1.3l-6.5,1.4c-2.2,0.5-4.3,1.1-6.5,1.7c-17.3,4.5-34.1,10.5-50.2,18.1
		c-16.1,7.5-31.6,16.4-46.2,26.7c-14.6,10.2-28.2,21.8-40.8,34.4c-12.6,12.6-24.1,26.3-34.4,40.8c-10.3,14.6-19.1,30.1-26.7,46.2
		c-7.5,16.1-13.6,33-18.1,50.2c-0.5,2.2-1.2,4.3-1.7,6.5l-1.4,6.5c-0.4,2.2-1,4.4-1.3,6.5l-1.1,6.6c-0.3,2.2-0.8,4.4-1.1,6.6
		l-0.8,6.6c-0.2,2.2-0.6,4.4-0.7,6.7l-0.5,6.7c-1.2,17.8-0.6,35.7,1.6,53.5c2.2,17.7,6.3,35.3,12.2,52.2c5.8,17,13.5,33.3,22.8,48.8
		l7.3,11.4l7.9,11l8.5,10.6L127.9,489.3z"/>
	<path class="st0" d="M566.2,112.1c27.1,25.4,48.7,56.9,63,91.6c7.1,17.3,12.4,35.5,15.9,53.9c3.5,18.5,4.9,37.3,4.7,56.1
		c-0.5,37.7-8.8,75.2-23.6,109.9c-14.9,34.7-36.6,66.4-63.3,93.2c-26.8,26.6-58.5,48.3-93.2,63.3c-17.4,7.4-35.4,13.2-53.8,17.2
		c-9.2,2-18.5,3.5-27.9,4.6c-1.2,0.1-2.3,0.3-3.5,0.4l-3.5,0.3l-7,0.6c-1.2,0.1-2.3,0.2-3.5,0.2l-3.5,0.1l-7.1,0.2
		c-18.8,0.3-37.7-1.2-56.2-4.7c-18.5-3.5-36.6-8.8-53.9-15.9c-34.6-14.3-66.2-35.9-91.6-63c27.1,25.4,59,45.4,93.5,58.1
		c17.2,6.4,35.1,11.1,53.2,13.9c18.1,2.8,36.5,4,54.7,3.2l6.8-0.4l3.4-0.2c1.1-0.1,2.3-0.2,3.4-0.3l6.8-0.7l3.4-0.3
		c1.1-0.1,2.3-0.3,3.4-0.5c9.1-1.2,18.1-2.8,26.9-4.9c17.8-4.1,35.2-9.9,51.8-17.3c16.7-7.4,32.7-16.2,47.7-26.6
		c15-10.3,29.1-22.1,42-35c12.9-12.9,24.6-26.9,35-42c10.3-15,19.2-31,26.6-47.7c7.4-16.7,13.2-34.1,17.3-51.8
		c2.1-8.9,3.7-17.9,4.9-26.9c0.2-1.1,0.4-2.3,0.5-3.4l0.3-3.4l0.7-6.8c0.1-1.1,0.3-2.3,0.3-3.4l0.2-3.4l0.4-6.8
		c0.7-18.3-0.4-36.6-3.2-54.7c-2.8-18.1-7.5-36-13.9-53.2C611.6,171.1,591.6,139.2,566.2,112.1z"/>
	<path class="st0" d="M154.7,476.8c-12.8-11.1-24.1-24-33.9-38c-2.3-3.6-4.7-7.2-7-10.8c-2.1-3.7-4.3-7.4-6.4-11.2
		c-1.9-3.8-3.9-7.6-5.7-11.5l-2.6-5.9c-0.8-2-1.8-3.9-2.5-6C84.1,361.4,79,326.4,80.9,292c1.9-34.4,10.9-68.4,26-99.2
		c15-30.8,36-58.6,61.5-81c-22.3,25.5-40.7,53.9-53.9,84.4c-13.1,30.6-21.1,63.2-22.9,96.3c-1.9,33,2.4,66.4,13,97.9
		c0.6,2,1.4,3.9,2.1,5.9l2.2,5.8c0.3,1,0.8,1.9,1.2,2.9l1.2,2.9l2.4,5.7c1.7,3.8,3.6,7.5,5.4,11.3c2,3.7,4,7.3,6,11
		C133.6,450.4,143.6,464,154.7,476.8z"/>
	<path class="st0" d="M542.8,476.8c11.1-12.8,21.1-26.4,29.5-40.8c2-3.7,4.1-7.3,6-11c1.8-3.8,3.7-7.5,5.4-11.3l2.4-5.7l1.2-2.9
		c0.4-1,0.8-1.9,1.2-2.9l2.2-5.8c0.7-2,1.5-3.9,2.1-5.9c10.6-31.5,14.8-64.9,13-97.9c-1.9-33.1-9.8-65.7-22.9-96.3
		c-13.2-30.6-31.6-58.9-53.9-84.4c25.4,22.4,46.5,50.1,61.5,81c15.1,30.8,24.1,64.8,26,99.2c1.9,34.4-3.2,69.3-15.8,101.3
		c-0.7,2-1.7,4-2.5,6l-2.6,5.9c-1.8,3.9-3.8,7.7-5.7,11.5c-2.1,3.8-4.3,7.4-6.4,11.2c-2.3,3.6-4.6,7.2-7,10.8
		C566.9,452.7,555.6,465.6,542.8,476.8z"/>
</g>
<g>
	<path class="st0" d="M50.6,673.7h0.7c0.5,2.4,1.1,4.5,1.9,6.1c0.8,1.7,1.6,3,2.6,4.1c0.9,1.1,1.9,1.9,3,2.5c1,0.6,2.1,1,3.1,1.3
		c1.1,0.3,2.1,0.4,3,0.5c1,0,1.9,0.1,2.7,0.1c2.4,0,4.3-0.4,5.8-1.1c1.5-0.7,2.7-1.6,3.6-2.7c0.9-1.1,1.5-2.3,1.9-3.6
		c0.4-1.3,0.5-2.4,0.5-3.5c0-1.6-0.3-2.9-0.9-4c-0.6-1.1-1.3-2.1-2.2-2.9c-0.9-0.8-1.9-1.4-2.9-1.9c-1.1-0.5-2-0.9-3-1.1l-7.7-2.3
		c-3.6-1.1-6.4-2.6-8.2-4.4c-1.9-1.8-2.8-4.3-2.8-7.4c0-2,0.4-3.9,1.1-5.6c0.7-1.7,1.7-3.2,3-4.5c1.3-1.3,2.9-2.2,4.7-3
		c1.8-0.7,3.8-1.1,5.9-1.1c1.6,0,2.9,0.1,3.9,0.4c1.1,0.3,2,0.6,2.7,0.9c0.8,0.3,1.4,0.6,2,0.9c0.6,0.3,1.2,0.4,1.8,0.4
		c0.6,0,1-0.1,1.2-0.2c0.2-0.2,0.5-0.5,0.8-1.2H80v12.1h-0.8c-0.3-1.6-0.7-3.2-1.4-4.7c-0.6-1.5-1.5-2.8-2.5-4
		c-1-1.1-2.3-2.1-3.7-2.8c-1.5-0.7-3.1-1-5.1-1c-1.1,0-2.3,0.1-3.6,0.4c-1.3,0.3-2.5,0.8-3.6,1.5c-1.1,0.7-2,1.7-2.8,2.8
		c-0.7,1.2-1.1,2.6-1.1,4.4c0,1.4,0.3,2.7,0.9,3.7c0.6,1,1.3,1.9,2.2,2.5c0.9,0.7,1.9,1.3,3.1,1.7c1.1,0.5,2.3,0.9,3.5,1.2l8.1,2.5
		c0.8,0.3,1.9,0.6,3.2,1.1c1.3,0.4,2.6,1.1,3.8,2c1.2,0.9,2.3,2.1,3.2,3.6c0.9,1.5,1.3,3.4,1.3,5.6c0,2.1-0.4,4.1-1.2,6
		c-0.8,1.9-1.9,3.6-3.4,5c-1.5,1.5-3.3,2.6-5.4,3.5c-2.1,0.9-4.5,1.3-7.1,1.3c-0.9,0-1.8,0-2.5,0c-0.7,0-1.4-0.1-2-0.2
		c-0.6-0.1-1.3-0.2-1.9-0.3c-0.6-0.1-1.3-0.3-2.1-0.5c-0.9-0.3-1.9-0.6-2.9-0.9c-1-0.4-1.9-0.5-2.7-0.5c-0.7,0-1.1,0.1-1.4,0.4
		c-0.2,0.3-0.5,0.6-0.6,1.1h-1V673.7z"/>
	<path class="st0" d="M98.5,640.3h21.6v0.9h-7.4v32.4c0,2.7,0.2,5,0.7,6.8s1.2,3.4,2.1,4.5c0.9,1.1,2.1,2,3.5,2.4
		c1.4,0.5,3,0.7,4.8,0.7c2.5,0,4.7-0.4,6.6-1.1c1.9-0.7,3.6-2,5-3.9c0.4-0.6,0.8-1.2,1.2-1.7c0.3-0.6,0.6-1.3,0.9-2
		c0.2-0.8,0.4-1.7,0.6-2.8c0.1-1.1,0.2-2.4,0.2-4.1v-31.2h-7.4v-0.9h15.9v0.9h-7.4v32.5c0,1.9-0.2,3.6-0.6,5.1
		c-0.4,1.5-1.2,3.1-2.5,4.8c-1.2,1.6-2.9,2.9-5,3.9c-2.1,1-5,1.5-8.5,1.5c-5.4,0-9.5-1.3-12.3-4c-2.8-2.6-4.3-6.7-4.3-12.1v-31.7
		h-7.4V640.3z"/>
	<path class="st0" d="M161.7,640.3h32l-28.1,46.8h14.8c2.2,0,4-0.3,5.2-1c1.2-0.6,2.3-1.4,3.2-2.3c1-0.9,2-2.3,3-4.1
		c1-1.8,1.8-4,2.3-6.4h0.7v14.7h-37.1l28-46.8h-10.4c-3.6,0-6.4,1-8.5,2.9c-2,1.9-3.5,4.5-4.4,7.9h-0.7V640.3z"/>
	<path class="st0" d="M206.3,640.3h21.6v0.9h-7.4v32.4c0,2.7,0.2,5,0.7,6.8s1.2,3.4,2.1,4.5c0.9,1.1,2.1,2,3.5,2.4
		c1.4,0.5,3,0.7,4.8,0.7c2.5,0,4.7-0.4,6.6-1.1c1.9-0.7,3.6-2,5-3.9c0.4-0.6,0.8-1.2,1.2-1.7c0.3-0.6,0.6-1.3,0.9-2
		c0.2-0.8,0.4-1.7,0.6-2.8c0.1-1.1,0.2-2.4,0.2-4.1v-31.2h-7.4v-0.9h15.9v0.9H247v32.5c0,1.9-0.2,3.6-0.6,5.1
		c-0.4,1.5-1.2,3.1-2.5,4.8c-1.2,1.6-2.9,2.9-5,3.9c-2.1,1-5,1.5-8.5,1.5c-5.4,0-9.5-1.3-12.3-4c-2.8-2.6-4.3-6.7-4.3-12.1v-31.7
		h-7.4V640.3z"/>
	<path class="st0" d="M267.6,673.7h0.7c0.5,2.4,1.1,4.5,1.9,6.1c0.8,1.7,1.6,3,2.6,4.1c0.9,1.1,1.9,1.9,3,2.5c1,0.6,2.1,1,3.1,1.3
		c1.1,0.3,2.1,0.4,3,0.5c1,0,1.9,0.1,2.7,0.1c2.4,0,4.3-0.4,5.8-1.1c1.5-0.7,2.7-1.6,3.6-2.7c0.9-1.1,1.5-2.3,1.9-3.6
		c0.4-1.3,0.5-2.4,0.5-3.5c0-1.6-0.3-2.9-0.9-4c-0.6-1.1-1.3-2.1-2.2-2.9c-0.9-0.8-1.9-1.4-2.9-1.9c-1.1-0.5-2-0.9-3-1.1l-7.7-2.3
		c-3.6-1.1-6.4-2.6-8.2-4.4c-1.9-1.8-2.8-4.3-2.8-7.4c0-2,0.4-3.9,1.1-5.6c0.7-1.7,1.7-3.2,3-4.5c1.3-1.3,2.9-2.2,4.7-3
		c1.8-0.7,3.8-1.1,5.9-1.1c1.6,0,2.9,0.1,3.9,0.4c1.1,0.3,2,0.6,2.7,0.9c0.8,0.3,1.4,0.6,2,0.9c0.6,0.3,1.2,0.4,1.8,0.4
		c0.6,0,1-0.1,1.2-0.2c0.2-0.2,0.5-0.5,0.8-1.2h0.9v12.1h-0.8c-0.3-1.6-0.7-3.2-1.4-4.7c-0.6-1.5-1.5-2.8-2.5-4
		c-1-1.1-2.3-2.1-3.7-2.8c-1.5-0.7-3.1-1-5.1-1c-1.1,0-2.3,0.1-3.6,0.4c-1.3,0.3-2.5,0.8-3.6,1.5c-1.1,0.7-2,1.7-2.8,2.8
		c-0.7,1.2-1.1,2.6-1.1,4.4c0,1.4,0.3,2.7,0.9,3.7c0.6,1,1.3,1.9,2.2,2.5c0.9,0.7,1.9,1.3,3.1,1.7c1.1,0.5,2.3,0.9,3.5,1.2l8.1,2.5
		c0.8,0.3,1.9,0.6,3.2,1.1c1.3,0.4,2.6,1.1,3.8,2c1.2,0.9,2.3,2.1,3.2,3.6c0.9,1.5,1.3,3.4,1.3,5.6c0,2.1-0.4,4.1-1.2,6
		c-0.8,1.9-1.9,3.6-3.4,5c-1.5,1.5-3.3,2.6-5.4,3.5c-2.1,0.9-4.5,1.3-7.1,1.3c-0.9,0-1.8,0-2.5,0c-0.7,0-1.4-0.1-2-0.2
		c-0.6-0.1-1.3-0.2-1.9-0.3c-0.6-0.1-1.3-0.3-2.1-0.5c-0.9-0.3-1.9-0.6-2.9-0.9c-1-0.4-1.9-0.5-2.7-0.5c-0.7,0-1.1,0.1-1.4,0.4
		c-0.2,0.3-0.5,0.6-0.6,1.1h-1V673.7z"/>
	<path class="st0" d="M316.2,687.1h7.4v-45.9h-7.4v-0.9h21.6v0.9h-7.4v45.9h7.4v0.9h-21.6V687.1z"/>
	<path class="st0" d="M348.8,687.1h7.4v-45.9h-7.4v-0.9h21.1v0.9h-6.9v21.3h0.7l20.3-21.3h-7v-0.9h13.9v0.9h-5.6l-17,18.1l24.4,27.8
		h4.4v0.9h-19.4v-0.9h6l-20.1-23.6h-0.5v23.6h6.9v0.9h-21.1V687.1z"/>
	<path class="st0" d="M405.4,687.1h7.4v-45.9h-7.4v-0.9H427v0.9h-7.4v45.9h7.4v0.9h-21.6V687.1z"/>
	<path class="st0" d="M438,687.1h7.4v-45.9H438v-0.9H459v0.9h-6.9v21.3h0.7l20.3-21.3h-7v-0.9H480v0.9h-5.6l-17,18.1l24.4,27.8h4.4
		v0.9h-19.4v-0.9h6l-20.1-23.6h-0.5v23.6h6.9v0.9H438V687.1z"/>
	<path class="st0" d="M492.3,687.1h5.9l18.1-48h1.6l18.3,48h6v0.9h-20.7v-0.9h7.4l-7-18.7h-15.6l-7,18.7h7.4v0.9h-14.4V687.1z
		 M514.1,648l-7.4,19.5h14.8L514.1,648z"/>
	<path class="st0" d="M561,687.1h7.4v-45.9h-3.9c-0.9,0-1.9,0.1-3,0.2c-1.1,0.2-2.2,0.6-3.4,1.3c-1.1,0.7-2.2,1.8-3.3,3.4
		c-1.1,1.5-2,3.7-2.7,6.4h-0.7v-12.3h40.8v12.3h-0.7c-0.8-2.7-1.7-4.9-2.7-6.4c-1.1-1.5-2.1-2.7-3.3-3.4c-1.1-0.7-2.3-1.2-3.4-1.3
		c-1.1-0.2-2.1-0.2-3-0.2h-3.9v45.9h7.4v0.9H561V687.1z"/>
	<path class="st0" d="M601.4,687.1h5.9l18.1-48h1.6l18.3,48h6v0.9h-20.7v-0.9h7.4l-7-18.7h-15.6l-7,18.7h7.4v0.9h-14.4V687.1z
		 M623.2,648l-7.4,19.5h14.8L623.2,648z"/>
</g>
</svg>
